# xmcd
#
# Track frame offsets:
#	150
#	27675
#	55364
#	79295
#	104646
#	130708
#	158319
#	188853
#	216838
#	239951
#	263221
#	285760
#	307191
#	329281
#
# Disc length: 4550 seconds
# Revision: 0
# Processed by: cddbd v1.5.2PL0 Copyright (c) Steve Scherf et al.
# Submitted via: dBpowerAMP V12.0
#
DISCID=d011c40e
DTITLE=Franz Kafka - Der Prozess 2
DYEAR=2008
DGENRE=Unbekanntes Genre
TTITLE0=Erste Untersuchung
TTITLE1=Erste Untersuchung
TTITLE2=Erste Untersuchung
TTITLE3=Erste Untersuchung
TTITLE4=Erste Untersuchung
TTITLE5=Erste Untersuchung
TTITLE6=Im leeren Sitzungssaal - Der Student -Die Kanzleien
TTITLE7=Im leeren Sitzungssaal - Der Student -Die Kanzleien
TTITLE8=Im leeren Sitzungssaal - Der Student -Die Kanzleien
TTITLE9=Im leeren Sitzungssaal - Der Student -Die Kanzleien
TTITLE10=Im leeren Sitzungssaal - Der Student -Die Kanzleien
TTITLE11=Im leeren Sitzungssaal - Der Student -Die Kanzleien
TTITLE12=Im leeren Sitzungssaal - Der Student -Die Kanzleien
TTITLE13=Im leeren Sitzungssaal - Der Student -Die Kanzleien
EXTD=
EXTT0=
EXTT1=
EXTT2=
EXTT3=
EXTT4=
EXTT5=
EXTT6=
EXTT7=
EXTT8=
EXTT9=
EXTT10=
EXTT11=
EXTT12=
EXTT13=
PLAYORDER=
